<?xml version="1.0" encoding="UTF-8" standalone="no"?>
<!-- Created with Inkscape (http://www.inkscape.org/) -->

<svg
   width="512"
   height="512"
   viewBox="0 0 512 512"
   version="1.1"
   id="svg1"
   xml:space="preserve"
   xmlns="http://www.w3.org/2000/svg"
   xmlns:svg="http://www.w3.org/2000/svg"><defs
     id="defs1" /><g
     id="layer1"
     transform="translate(-55.855335,-24.705244)"><path
       d="m 336.72403,298.56923 c -6.209,7.90292 -15.46795,12.43472 -25.40086,12.43472 -17.92205,0 -32.50176,-14.83169 -32.50176,-33.06224 0,-6.16128 1.67862,-12.17511 4.85373,-17.38996 0.83994,-1.38248 2.62012,-1.80717 3.98037,-0.95275 1.35774,0.85571 1.77642,2.66792 0.93528,4.04914 -2.60774,4.28479 -3.98651,9.22616 -3.98651,14.29357 0,14.9867 11.98558,27.17947 26.71889,27.17947 8.16509,0 15.77764,-3.7265 20.88409,-10.22427 0.99723,-1.27034 2.81586,-1.47574 4.06336,-0.46125 1.24748,1.01321 1.45063,2.86449 0.45341,4.13357 z m 4.68231,-29.60155 c -0.36783,0.15255 -0.74943,0.22514 -1.12478,0.22514 -1.14867,9.6e-4 -2.23707,-0.67538 -2.70532,-1.7973 -4.21931,-10.09342 -14.03498,-16.61473 -25.00813,-16.61473 -1.22273,0 -2.45548,0.0814 -3.66566,0.24389 -1.60439,0.21012 -3.07942,-0.90428 -3.29533,-2.50272 -0.21592,-1.59719 0.90886,-3.06679 2.512,-3.28193 1.46875,-0.1976 2.96516,-0.29767 4.44899,-0.29767 13.34706,0 25.28555,7.9334 30.41621,20.2081 0.62268,1.4896 -0.0841,3.19811 -1.57798,3.81722 z m -1.44097,74.82203 c 25.31863,-11.07027 41.67771,-36.17229 41.67771,-63.95147 0,-15.97897 -5.22517,-31.00845 -15.11173,-43.46362 -1.01525,-1.27954 -0.80844,-3.143 0.46285,-4.16358 1.27004,-1.02186 3.12152,-0.81241 4.1355,0.46458 10.72906,13.51765 16.4007,29.82668 16.4007,47.16262 0,30.13894 -17.75019,57.3748 -45.22047,69.38569 -0.38087,0.16766 -0.77942,0.24627 -1.17037,0.24627 -1.13638,0 -2.21974,-0.66642 -2.70152,-1.78349 -0.64823,-1.49913 0.0351,-3.24454 1.52733,-3.897 z m -45.69753,8.18916 c -0.2428,0 -0.49071,-0.0291 -0.73729,-0.0922 -33.27755,-8.55084 -56.52027,-38.53112 -56.52027,-72.9075 0,-4.43401 0.38951,-8.87684 1.15714,-13.2072 0.2833,-1.60226 1.81478,-2.66748 3.42085,-2.38822 1.60483,0.28305 2.6747,1.81327 2.39019,3.41806 -0.70696,3.99046 -1.06487,8.08706 -1.06487,12.17736 0,31.68363 21.4191,59.31488 52.08773,67.19346 1.57829,0.40689 2.52929,2.01418 2.12331,3.59117 -0.34268,1.33183 -1.54157,2.2151 -2.85679,2.2151 z m 61.85132,-135.8129 c 1.36082,0.92204 1.71667,2.7725 0.79456,4.13323 -0.92209,1.36202 -2.77399,1.72037 -4.13357,0.79322 -11.59465,-7.85578 -25.1585,-12.00813 -39.22611,-12.00813 -23.06303,0 -44.64531,11.35903 -57.73472,30.38638 -0.57778,0.8404 -1.50879,1.29058 -2.45516,1.29058 -0.58157,0 -1.16826,-0.16966 -1.68478,-0.52414 -1.35446,-0.93097 -1.69628,-2.78523 -0.76527,-4.13832 14.20032,-20.64314 37.61663,-32.96756 62.63993,-32.96756 15.26267,0 29.98074,4.50688 42.56512,13.03474 z m 65.69419,87.25121 c -1.58074,-0.33036 -2.59907,-1.89238 -2.27213,-3.4911 1.51433,-7.41387 2.28091,-15.04798 2.28091,-22.68844 0,-52.95784 -37.2186,-98.99927 -88.49848,-109.47641 -16.41731,-3.35061 -33.82165,-2.8734 -50.00348,1.39365 -0.24799,0.0646 -0.496,0.0963 -0.74028,0.0963 -1.29888,0 -2.48381,-0.88101 -2.82703,-2.20759 -0.40709,-1.57974 0.5286,-3.19364 2.09055,-3.60503 17.03857,-4.49616 35.35104,-5.0025 52.63762,-1.46709 53.99665,11.03158 93.18805,59.5097 93.18805,115.26626 0,8.04169 -0.8079,16.07708 -2.40242,23.88335 -0.28435,1.39619 -1.50184,2.35694 -2.85957,2.35694 -0.19543,0 -0.39457,-0.0202 -0.59374,-0.0608 z m -116.78241,90.18518 c -1.63391,-0.0914 -2.88311,-1.47107 -2.79043,-3.08096 0.0926,-1.60866 1.48914,-2.84082 3.12685,-2.74823 2.11627,0.11887 4.27827,0.17766 6.42504,0.17766 43.65372,0 83.63598,-25.26821 101.85871,-64.37266 0.6817,-1.46731 2.43998,-2.10904 3.92787,-1.43604 1.48787,0.67299 2.13914,2.40672 1.45743,3.87154 -19.1863,41.17344 -61.28102,67.77638 -107.24401,67.77638 -2.25852,0 -4.53349,-0.0626 -6.76146,-0.18764 z m -26.55578,-3.26777 c -42.35779,-12.04216 -74.70026,-48.06565 -82.39432,-91.77436 -0.28114,-1.5938 0.77126,-3.11603 2.34989,-3.39863 1.56744,-0.28384 3.08508,0.77871 3.36622,2.37251 7.30719,41.50952 38.02374,75.72066 78.25309,87.15869 1.54254,0.43708 2.44195,2.05726 2.00656,3.61592 -0.36077,1.29239 -1.52513,2.13638 -2.79275,2.13638 -0.26,0 -0.52493,-0.0351 -0.78869,-0.11049 z M 256.95431,173.36358 c 1.44679,-0.76095 3.22591,-0.18671 3.9752,1.27766 0.74934,1.46311 0.18453,3.26512 -1.26228,4.02353 -36.23322,19.00117 -59.31761,56.41771 -60.24381,97.64547 -0.0366,1.62553 -1.3495,2.91725 -2.94666,2.91725 -0.0226,0 -0.0457,0 -0.0695,-9.6e-4 -1.62752,-0.0371 -2.91763,-1.403 -2.87971,-3.05027 0.97549,-43.41091 25.27922,-82.80595 63.42676,-102.81237 z m 94.07446,-49.58575 c 48.49201,12.09623 88.93779,47.10961 108.1904,93.6613 0.623,1.50553 -0.0841,3.23502 -1.57886,3.86127 -0.36802,0.15437 -0.74987,0.22773 -1.12539,0.22773 -1.14805,0 -2.23829,-0.68318 -2.70678,-1.81804 -18.54292,-44.83105 -57.49153,-78.55272 -104.18864,-90.19981 -1.57131,-0.39092 -2.52968,-1.99263 -2.14158,-3.57535 0.38937,-1.58397 1.98206,-2.55056 3.55085,-2.1571 z m 59.29672,271.50444 c 34.89618,-29.24818 54.91036,-72.04218 54.91036,-117.40784 0,-9.61394 -0.89993,-19.238 -2.67319,-28.60212 -0.30295,-1.59873 0.7529,-3.13819 2.35884,-3.43976 1.61734,-0.31041 3.15233,0.75079 3.45528,2.34829 1.84168,9.72373 2.77588,19.71372 2.77588,29.69359 0,47.10826 -20.78231,91.54391 -57.01703,121.91259 -0.55517,0.46563 -1.23076,0.69277 -1.90381,0.69277 -0.84287,0 -1.67948,-0.35585 -2.26381,-1.04859 -1.05329,-1.24419 -0.89233,-3.1016 0.35748,-4.14893 z m -27.77414,26.15556 c -22.13248,11.06351 -45.98019,16.67197 -70.88048,16.67197 -44.95912,0 -88.04781,-19.2283 -118.21998,-52.75482 -1.09048,-1.21223 -0.99708,-3.0851 0.2095,-4.18068 1.20783,-1.09429 3.07071,-1.003 4.16121,0.21051 29.05643,32.28892 70.55233,50.80586 113.84927,50.80586 23.98146,0 46.9457,-5.40051 68.25655,-16.05318 1.45648,-0.7291 3.22468,-0.13051 3.94916,1.33145 0.72445,1.46328 0.13126,3.24105 -1.32523,3.96889 z M 169.84057,216.73295 c 1.55924,0.61783 2.30156,2.33198 1.65743,3.82887 -7.96246,18.4826 -11.99869,38.08411 -11.99869,58.25951 0,28.8403 8.42331,56.92211 24.35872,81.20768 0.89942,1.37007 0.46999,3.1809 -0.95832,4.04237 -0.50535,0.3039 -1.0683,0.45082 -1.6247,0.45082 -1.01593,0 -2.00828,-0.48473 -2.58826,-1.37005 -16.55072,-25.22364 -25.29872,-54.38417 -25.29872,-84.33082 0,-20.94645 4.19203,-41.30143 12.46215,-60.49856 0.64412,-1.49566 2.42985,-2.20642 3.99039,-1.58982 z m 152.21542,-96.9167 c 1.62094,0.0983 2.8527,1.47668 2.75193,3.07779 -0.10193,1.60109 -1.49876,2.80783 -3.11591,2.71702 -3.20406,-0.19533 -6.45098,-0.29485 -9.65374,-0.29485 -50.05102,0 -97.04276,24.24789 -125.7043,64.8651 -0.57054,0.80862 -1.48492,1.2428 -2.41314,1.2428 -0.58061,0 -1.16626,-0.16912 -1.67886,-0.52126 -1.33125,-0.91811 -1.65872,-2.72821 -0.73049,-4.04318 29.75979,-42.17351 78.55383,-67.35072 130.52679,-67.35072 3.32369,0 6.69401,0.10322 10.01772,0.3073 z m -201.65154,209.7004 c 1.56568,-0.44987 3.20091,0.4511 3.65114,2.00927 9.78611,33.85479 28.75381,64.51158 54.85433,88.65551 26.21308,24.25076 58.50421,40.87783 93.37906,48.0818 1.59606,0.33049 2.62046,1.88235 2.2891,3.46817 -0.28962,1.38475 -1.51761,2.33597 -2.886,2.33597 -0.19983,0 -0.40215,-0.0187 -0.60455,-0.0615 -35.93213,-7.42261 -69.19704,-24.54982 -96.20056,-49.53063 -26.88462,-24.8715 -46.42269,-56.45187 -56.50476,-91.32952 -0.45021,-1.55817 0.4553,-3.18293 2.02224,-3.629 z m -6.35217,-25.20248 c -1.49488,0 -2.78004,-1.12307 -2.9453,-2.63783 -0.79701,-7.30254 -1.20251,-14.75211 -1.20251,-22.14336 0,-72.9518 39.64015,-140.53034 103.44903,-176.3661 1.42753,-0.80364 3.23767,-0.29915 4.04106,1.1256 0.80467,1.4235 0.2987,3.22854 -1.12878,4.02965 -61.94538,34.78874 -100.42749,100.39365 -100.42749,171.21085 0,7.17703 0.39278,14.41238 1.16692,21.50196 0.17677,1.62377 -0.99914,3.08529 -2.62877,3.26148 -0.10813,0.0109 -0.21737,0.0182 -0.32416,0.0182 z M 311.11361,76.025376 c 56.06896,0 108.16484,22.299224 146.68979,62.789674 1.11913,1.17676 1.066,3.03043 -0.1176,4.14313 -0.57156,0.53498 -1.29994,0.80123 -2.02701,0.80123 -0.78403,0 -1.56549,-0.30893 -2.14592,-0.91929 -37.3983,-39.30619 -87.97039,-60.952352 -142.39928,-60.952352 -21.4552,0 -42.5449,3.423516 -62.6812,10.17256 -1.54274,0.5174 -3.21821,-0.305185 -3.74045,-1.839847 -0.52099,-1.533433 0.30853,-3.196193 1.85253,-3.713615 20.74576,-6.955015 42.47031,-10.48149 64.56912,-10.48149 z m -7.7308,402.884144 c -1.62337,-0.0681 -2.88501,-1.43804 -2.81696,-3.06136 0.0668,-1.62331 1.44564,-2.82947 3.0602,-2.81685 2.72116,0.1134 5.48394,0.1702 8.21138,0.1702 107.65784,0 195.24289,-87.58353 195.24289,-195.23672 0,-41.44879 -12.81932,-81.03734 -37.0728,-114.48424 -0.95284,-1.31579 -0.66043,-3.15462 0.6554,-4.1087 1.31459,-0.95281 3.15474,-0.66168 4.10758,0.65412 24.98702,34.45769 38.19329,75.24102 38.19329,117.93882 0,110.89856 -90.22429,201.11999 -201.12636,201.11999 -2.80937,0 -5.65281,-0.0591 -8.45462,-0.17512 z M 429.23431,64.70677 c 77.81277,42.61999 126.15162,123.89544 126.15162,212.10882 0,23.9227 -3.50306,47.55058 -10.41204,70.22871 -0.38507,1.2659 -1.55402,2.08139 -2.8189,2.08139 -0.28276,0 -0.56934,-0.0415 -0.85461,-0.1267 -1.55653,-0.46796 -2.43768,-2.10271 -1.96682,-3.65089 6.74107,-22.12737 10.1596,-45.18564 10.1596,-68.53249 0,-86.08055 -47.17114,-165.3913 -123.10298,-206.98002 -1.42523,-0.780357 -1.94279,-2.561898 -1.15761,-3.978328 0.78522,-1.417704 2.57653,-1.933342 4.00174,-1.150473 z m 103.72681,310.1151 c 1.48986,0.67511 2.15428,2.43873 1.48225,3.93948 -21.72908,48.54087 -59.28106,89.38532 -105.7379,115.00912 -0.45143,0.24885 -0.93833,0.36626 -1.41884,0.36626 -1.04608,0 -2.05921,-0.55769 -2.59807,-1.5467 -0.78488,-1.44333 -0.25996,-3.2529 1.17284,-4.04412 45.336,-25.00487 81.98136,-64.86284 103.18678,-112.23221 0.67073,-1.49947 2.42309,-2.17073 3.91294,-1.49183 z M 400.21129,498.86131 c 1.50623,-0.60441 3.22174,0.11887 3.82928,1.61559 0.60755,1.49543 -0.12105,3.19735 -1.62726,3.80053 -28.90605,11.58178 -59.50614,17.45464 -90.95081,17.45464 -63.34802,0 -123.32558,-24.05206 -168.88353,-67.72873 -1.16844,-1.12002 -1.2012,-2.96958 -0.0719,-4.12966 1.12685,-1.16254 2.9898,-1.19383 4.15952,-0.0713 44.45377,42.61795 102.97933,66.08813 164.79587,66.08813 30.68709,0 60.54605,-5.72896 88.74879,-17.02918 z M 74.804584,277.26491 c 0,54.96156 19.059875,108.58802 53.666936,150.99971 1.02826,1.2617 0.84577,3.12195 -0.40778,4.15715 -0.54621,0.4505 -1.20697,0.67069 -1.86143,0.67069 -0.84955,0 -1.69153,-0.36826 -2.273,-1.08072 -35.466654,-43.46583 -54.999752,-98.42232 -54.999752,-154.74683 0,-39.52635 9.611736,-78.78569 27.796902,-113.53103 0.7564,-1.44392 2.53226,-1.99567 3.96704,-1.23765 1.43602,0.75929 1.98728,2.54491 1.23214,3.98883 C 84.182238,200.38631 74.804584,238.694 74.804584,277.26491 Z M 118.93151,137.13583 c -1.29643,-0.98536 -1.55598,-2.84312 -0.57829,-4.15104 1.3607,-1.81964 2.7655,-3.64564 4.17409,-5.42592 0.10576,-0.13217 0.22551,-0.24763 0.34773,-0.35811 0.0794,-0.14217 0.16383,-0.28315 0.26835,-0.41395 46.42764,-58.155195 115.48324,-91.509543 189.46003,-91.509543 16.16465,0 32.32678,1.610117 48.04162,4.785935 v 0 c 13.01232,2.629797 25.89362,6.370694 38.28736,11.118547 1.51818,0.581571 2.28041,2.292027 1.70341,3.822158 -0.44599,1.183477 -1.56354,1.912353 -2.74915,1.912353 -0.34645,0 -0.7005,-0.06353 -1.04318,-0.194288 -12.09137,-4.632295 -24.65893,-8.281755 -37.35505,-10.848077 v 0 C 344.15409,42.775554 328.38,41.204774 312.60342,41.204774 c -72.18644,0 -139.57268,32.548015 -184.879,89.296246 -0.097,0.12197 -0.21041,0.21842 -0.32127,0.32001 -0.0806,0.15108 -0.16875,0.2984 -0.27844,0.43553 -1.37582,1.73713 -2.7466,3.51996 -4.07454,5.29518 -0.57831,0.77331 -1.45899,1.18092 -2.35101,1.18092 -0.61608,0 -1.23721,-0.19556 -1.76765,-0.59683 z"
       fill-opacity="0.08"
       fill="#ffffff"
       mask="url(#mask-7)"
       id="path6"
       style="fill:#ffd5d5;fill-rule:evenodd;stroke:none;stroke-width:0.481639" /></g></svg>
